<svg width="134" height="19" viewBox="0 0 134 19" fill="none" xmlns="http://www.w3.org/2000/svg">
<path d="M7.656 1.008H10.704L12.624 6.648L14.544 1.008H17.616L14.712 8.76L16.872 14.208L21.696 0.959999H25.296L18.36 18H15.576L12.624 10.848L9.672 18H6.888L0 0.959999H3.552L8.4 14.208L10.512 8.76L7.656 1.008ZM31.7347 18.24C30.7267 18.24 29.8147 18.072 28.9987 17.736C28.1827 17.384 27.4867 16.912 26.9107 16.32C26.3347 15.728 25.8867 15.04 25.5667 14.256C25.2627 13.472 25.1107 12.648 25.1107 11.784C25.1107 10.888 25.2627 10.048 25.5667 9.264C25.8707 8.464 26.3107 7.768 26.8867 7.176C27.4627 6.568 28.1587 6.088 28.9747 5.736C29.8067 5.384 30.7347 5.208 31.7587 5.208C32.7827 5.208 33.6947 5.384 34.4948 5.736C35.3108 6.088 35.9987 6.56 36.5587 7.152C37.1347 7.744 37.5667 8.432 37.8547 9.216C38.1587 10 38.3107 10.816 38.3107 11.664C38.3107 11.872 38.3027 12.072 38.2867 12.264C38.2867 12.456 38.2708 12.616 38.2388 12.744H28.5187C28.5667 13.24 28.6867 13.68 28.8787 14.064C29.0707 14.448 29.3187 14.776 29.6227 15.048C29.9267 15.32 30.2707 15.528 30.6547 15.672C31.0387 15.816 31.4387 15.888 31.8547 15.888C32.4947 15.888 33.0947 15.736 33.6547 15.432C34.2307 15.112 34.6227 14.696 34.8307 14.184L37.5908 14.952C37.1268 15.912 36.3828 16.704 35.3587 17.328C34.3507 17.936 33.1427 18.24 31.7347 18.24ZM34.9987 10.656C34.9188 9.712 34.5668 8.96 33.9427 8.4C33.3347 7.824 32.5907 7.536 31.7107 7.536C31.2787 7.536 30.8707 7.616 30.4867 7.776C30.1187 7.92 29.7907 8.128 29.5027 8.4C29.2147 8.672 28.9747 9 28.7827 9.384C28.6067 9.768 28.5027 10.192 28.4707 10.656H34.9987ZM48.1419 18.24C47.1819 18.24 46.3259 18.024 45.5739 17.592C44.8219 17.16 44.2299 16.568 43.7979 15.816V18H40.9899V0.48H44.2059V7.632C44.6539 6.864 45.2379 6.272 45.9579 5.856C46.6939 5.424 47.5499 5.208 48.5259 5.208C49.3419 5.208 50.0859 5.384 50.7579 5.736C51.4299 6.088 52.0059 6.56 52.4859 7.152C52.9819 7.744 53.3579 8.44 53.6139 9.24C53.8859 10.04 54.0219 10.88 54.0219 11.76C54.0219 12.672 53.8699 13.52 53.5659 14.304C53.2779 15.088 52.8699 15.776 52.3419 16.368C51.8139 16.944 51.1899 17.4 50.4699 17.736C49.7499 18.072 48.9739 18.24 48.1419 18.24ZM47.2539 15.504C47.7659 15.504 48.2379 15.408 48.6699 15.216C49.1019 15.008 49.4699 14.736 49.7739 14.4C50.0779 14.064 50.3099 13.672 50.4699 13.224C50.6459 12.776 50.7339 12.296 50.7339 11.784C50.7339 11.272 50.6539 10.784 50.4939 10.32C50.3339 9.856 50.1019 9.448 49.7979 9.096C49.5099 8.744 49.1659 8.464 48.7659 8.256C48.3659 8.048 47.9259 7.944 47.4459 7.944C46.7259 7.944 46.0779 8.184 45.5019 8.664C44.9419 9.128 44.5099 9.704 44.2059 10.392V13.392C44.3179 13.712 44.4779 14 44.6859 14.256C44.9099 14.512 45.1579 14.736 45.4299 14.928C45.7019 15.104 45.9979 15.248 46.3179 15.36C46.6379 15.456 46.9499 15.504 47.2539 15.504Z" fill="#2196F3"/>
<path d="M67.3849 5.424C67.2729 5.312 67.0649 5.16 66.7609 4.968C66.4729 4.776 66.1129 4.592 65.6809 4.416C65.2649 4.224 64.8089 4.064 64.3129 3.936C63.8169 3.808 63.3129 3.744 62.8009 3.744C61.8889 3.744 61.2089 3.912 60.7609 4.248C60.3129 4.584 60.0889 5.056 60.0889 5.664C60.0889 6.016 60.1689 6.312 60.3289 6.552C60.5049 6.776 60.7529 6.976 61.0729 7.152C61.3929 7.328 61.7929 7.488 62.2729 7.632C62.7689 7.776 63.3369 7.928 63.9769 8.088C64.8089 8.312 65.5609 8.552 66.2329 8.808C66.9209 9.064 67.4969 9.384 67.9609 9.768C68.4409 10.152 68.8089 10.616 69.0649 11.16C69.3209 11.688 69.4489 12.344 69.4489 13.128C69.4489 14.04 69.2729 14.824 68.9209 15.48C68.5849 16.12 68.1209 16.64 67.5289 17.04C66.9529 17.44 66.2809 17.736 65.5129 17.928C64.7609 18.104 63.9689 18.192 63.1369 18.192C61.8569 18.192 60.5929 18 59.3449 17.616C58.0969 17.232 56.9769 16.688 55.9849 15.984L57.4489 13.128C57.5929 13.272 57.8489 13.464 58.2169 13.704C58.6009 13.928 59.0489 14.16 59.5609 14.4C60.0729 14.624 60.6409 14.816 61.2649 14.976C61.8889 15.136 62.5289 15.216 63.1849 15.216C65.0089 15.216 65.9209 14.632 65.9209 13.464C65.9209 13.096 65.8169 12.784 65.6089 12.528C65.4009 12.272 65.1049 12.048 64.7209 11.856C64.3369 11.664 63.8729 11.488 63.3289 11.328C62.7849 11.168 62.1769 10.992 61.5049 10.8C60.6889 10.576 59.9769 10.336 59.3689 10.08C58.7769 9.808 58.2809 9.496 57.8809 9.144C57.4809 8.776 57.1769 8.36 56.9689 7.896C56.7769 7.416 56.6809 6.848 56.6809 6.192C56.6809 5.328 56.8409 4.56 57.1609 3.888C57.4809 3.216 57.9209 2.656 58.4809 2.208C59.0569 1.76 59.7209 1.424 60.4729 1.2C61.2249 0.959999 62.0329 0.839999 62.8969 0.839999C64.0969 0.839999 65.2009 1.032 66.2089 1.416C67.2169 1.784 68.0969 2.224 68.8489 2.736L67.3849 5.424ZM79.755 17.352C79.323 17.544 78.795 17.736 78.171 17.928C77.547 18.12 76.891 18.216 76.203 18.216C75.755 18.216 75.331 18.16 74.931 18.048C74.547 17.936 74.203 17.76 73.899 17.52C73.611 17.264 73.379 16.944 73.203 16.56C73.027 16.16 72.939 15.68 72.939 15.12V7.896H71.283V5.424H72.939V1.344H76.155V5.424H78.795V7.896H76.155V14.04C76.155 14.488 76.267 14.808 76.491 15C76.731 15.176 77.019 15.264 77.355 15.264C77.691 15.264 78.019 15.208 78.339 15.096C78.659 14.984 78.915 14.888 79.107 14.808L79.755 17.352ZM85.9899 18.24C84.6939 18.24 83.7099 17.824 83.0379 16.992C82.3659 16.16 82.0299 14.928 82.0299 13.296V5.424H85.2459V12.6C85.2459 14.536 85.9419 15.504 87.3339 15.504C87.9579 15.504 88.5579 15.32 89.1339 14.952C89.7259 14.568 90.2059 13.992 90.5739 13.224V5.424H93.7899V14.304C93.7899 14.64 93.8459 14.88 93.9579 15.024C94.0859 15.168 94.2859 15.248 94.5579 15.264V18C94.2379 18.064 93.9659 18.104 93.7419 18.12C93.5339 18.136 93.3419 18.144 93.1659 18.144C92.5899 18.144 92.1179 18.016 91.7499 17.76C91.3979 17.488 91.1899 17.12 91.1259 16.656L91.0539 15.648C90.4939 16.512 89.7739 17.16 88.8939 17.592C88.0139 18.024 87.0459 18.24 85.9899 18.24ZM102.914 18.24C102.05 18.24 101.25 18.072 100.514 17.736C99.7779 17.4 99.1459 16.936 98.6179 16.344C98.0899 15.752 97.6739 15.064 97.3699 14.28C97.0819 13.48 96.9379 12.624 96.9379 11.712C96.9379 10.8 97.0739 9.952 97.3459 9.168C97.6339 8.384 98.0259 7.696 98.5219 7.104C99.0179 6.512 99.6099 6.048 100.298 5.712C100.986 5.376 101.738 5.208 102.554 5.208C103.482 5.208 104.314 5.432 105.05 5.88C105.802 6.328 106.386 6.912 106.802 7.632V0.48H110.018V14.304C110.018 14.64 110.074 14.88 110.186 15.024C110.298 15.168 110.49 15.248 110.762 15.264V18C110.202 18.112 109.746 18.168 109.394 18.168C108.818 18.168 108.346 18.024 107.978 17.736C107.61 17.448 107.402 17.072 107.354 16.608L107.282 15.816C106.818 16.616 106.186 17.224 105.386 17.64C104.602 18.04 103.778 18.24 102.914 18.24ZM103.754 15.504C104.058 15.504 104.37 15.456 104.69 15.36C105.01 15.248 105.306 15.096 105.578 14.904C105.85 14.712 106.09 14.488 106.298 14.232C106.522 13.976 106.69 13.696 106.802 13.392V10.392C106.674 10.04 106.49 9.72 106.25 9.432C106.026 9.128 105.762 8.872 105.458 8.664C105.17 8.44 104.858 8.264 104.522 8.136C104.202 8.008 103.882 7.944 103.562 7.944C103.082 7.944 102.634 8.048 102.218 8.256C101.818 8.464 101.474 8.752 101.186 9.12C100.898 9.472 100.674 9.88 100.514 10.344C100.354 10.808 100.274 11.288 100.274 11.784C100.274 12.312 100.362 12.8 100.538 13.248C100.714 13.696 100.954 14.088 101.258 14.424C101.562 14.76 101.922 15.024 102.338 15.216C102.77 15.408 103.242 15.504 103.754 15.504ZM113.895 18V5.424H117.111V18H113.895ZM113.895 3.672V0.48H117.111V3.672H113.895ZM126.54 18.24C125.516 18.24 124.596 18.064 123.78 17.712C122.964 17.36 122.268 16.888 121.692 16.296C121.132 15.688 120.7 14.992 120.396 14.208C120.092 13.424 119.94 12.6 119.94 11.736C119.94 10.856 120.092 10.024 120.396 9.24C120.7 8.456 121.132 7.768 121.692 7.176C122.268 6.568 122.964 6.088 123.78 5.736C124.596 5.384 125.516 5.208 126.54 5.208C127.564 5.208 128.476 5.384 129.276 5.736C130.092 6.088 130.78 6.568 131.34 7.176C131.916 7.768 132.356 8.456 132.66 9.24C132.964 10.024 133.116 10.856 133.116 11.736C133.116 12.6 132.964 13.424 132.66 14.208C132.356 14.992 131.924 15.688 131.364 16.296C130.804 16.888 130.116 17.36 129.3 17.712C128.484 18.064 127.564 18.24 126.54 18.24ZM123.252 11.736C123.252 12.296 123.332 12.808 123.492 13.272C123.668 13.72 123.9 14.112 124.188 14.448C124.492 14.784 124.844 15.048 125.244 15.24C125.644 15.416 126.076 15.504 126.54 15.504C127.004 15.504 127.436 15.416 127.836 15.24C128.236 15.048 128.58 14.784 128.868 14.448C129.172 14.112 129.404 13.712 129.564 13.248C129.74 12.784 129.828 12.272 129.828 11.712C129.828 11.168 129.74 10.664 129.564 10.2C129.404 9.736 129.172 9.336 128.868 9C128.58 8.664 128.236 8.408 127.836 8.232C127.436 8.04 127.004 7.944 126.54 7.944C126.076 7.944 125.644 8.04 125.244 8.232C124.844 8.424 124.492 8.688 124.188 9.024C123.9 9.36 123.668 9.76 123.492 10.224C123.332 10.688 123.252 11.192 123.252 11.736Z" fill="#212121"/>
</svg>
